<svg width="1280" height="220" xmlns="http://www.w3.org/2000/svg" preserveAspectRatio="xMidYMid meet" version="1.0">
 <metadata>Created by potrace 1.15, written by Peter Selinger 2001-2017</metadata>

 <g>
  <title>Layer 1</title>
  <g id="svg_1" fill="#a21818" transform="translate(0 640) scale(0.1 -0.1)">
   <path id="svg_2" d="m2066.37109,6394.06662c-4,-3 -7,-93 -7,-200l0,-193l-1022,-2l-1022,-3l390,-443c214,-244 390,-449 391,-455c1,-7 -175,-212 -391,-457l-392,-445l1195,-3c657,-1 1196,0 1198,2c2,2 -3,81 -11,175c-9,95 -16,181 -16,191c0,20 40,20 4030,20c3293,0 4030,-2 4030,-13c0,-7 -7,-91 -15,-186c-9,-96 -14,-175 -12,-177c2,-2 540,-3 1196,-2l1193,3l-391,445c-215,245 -389,450 -387,457c3,6 177,208 388,448c211,239 385,440 386,445c2,7 -363,10 -1012,10l-1016,0l0,195l0,195l-4348,0c-2392,0 -4352,-3 -4355,-7z"/>
  </g>
 </g>
</svg>